<svg width="346" height="106" viewBox="0 0 346 106" fill="none" xmlns="http://www.w3.org/2000/svg">
<g clip-path="url(#clip0_112_2)">
<path d="M0 78.1052V0H28.458C32.5872 0 36.3074 0.855419 39.618 2.56631C42.966 4.23999 45.607 6.65735 47.5416 9.81893C49.513 12.9431 50.499 16.6437 50.499 20.921C50.499 22.8179 50.22 24.7331 49.662 26.6673C49.104 28.6016 48.2485 30.3494 47.0952 31.9115C45.9418 33.4363 44.4541 34.571 42.6312 35.3147C45.049 35.91 47.0209 36.9884 48.546 38.5505C50.071 40.1126 51.2617 41.9536 52.1172 44.0736C52.9726 46.1562 53.5495 48.2952 53.847 50.4894C54.1818 52.6468 54.3492 54.6552 54.3492 56.5147C54.3492 60.6431 53.3263 64.3252 51.2802 67.561C49.234 70.7967 46.4814 73.3631 43.0218 75.2599C39.5996 77.1567 35.8052 78.1052 31.6386 78.1052H0ZM13.6152 66.4452H30.2436C32.4756 66.4452 34.4844 65.9057 36.27 64.8273C38.0556 63.7489 39.4879 62.261 40.5666 60.3641C41.6452 58.4673 42.1848 56.3099 42.1848 53.8926C42.1848 51.8099 41.6452 49.8383 40.5666 47.9789C39.4879 46.1194 38.0556 44.6131 36.27 43.4599C34.4844 42.3068 32.4756 41.7305 30.2436 41.7305H13.6152V66.4452ZM13.6152 30.2379H26.8956C29.6482 30.2379 31.9918 29.3826 33.9264 27.6715C35.8978 25.9605 36.8838 23.6921 36.8838 20.8652C36.8838 17.8526 35.8978 15.5837 33.9264 14.0589C31.9918 12.4968 29.6482 11.7158 26.8956 11.7158H13.6152V30.2379ZM99.0499 22.3158H112.665V78.1052H99.0499L98.4361 71.1873C96.9111 73.6794 94.8839 75.7062 92.3539 77.2683C89.8619 78.793 86.9045 79.5557 83.4818 79.5557C79.3526 79.5557 75.4839 78.7746 71.8754 77.2125C68.2673 75.6504 65.0867 73.493 62.3336 70.741C59.6183 67.9889 57.479 64.8089 55.9166 61.201C54.3916 57.5931 53.6288 53.7252 53.6288 49.5968C53.6288 45.6173 54.3542 41.8794 55.805 38.3831C57.2932 34.8868 59.3578 31.8184 61.9988 29.1779C64.6403 26.5373 67.6904 24.4731 71.15 22.9852C74.6096 21.4973 78.3297 20.7537 82.31 20.7537C85.9928 20.7537 89.285 21.5721 92.1865 23.2084C95.1255 24.8447 97.6181 26.9279 99.6637 29.4568L99.0499 22.3158ZM83.1469 66.4452C86.0486 66.4452 88.6153 65.7199 90.8473 64.2694C93.0793 62.8189 94.8281 60.8662 96.0925 58.4115C97.3575 55.9194 97.9897 53.1857 97.9897 50.2105C97.9897 47.1978 97.3575 44.4642 96.0925 42.0094C94.8281 39.5173 93.0609 37.5463 90.7915 36.0957C88.5595 34.6452 86.0117 33.92 83.1469 33.92C80.2827 33.92 77.6601 34.6636 75.2792 36.1515C72.9356 37.6021 71.0573 39.5547 69.6434 42.0094C68.2673 44.4642 67.5788 47.1978 67.5788 50.2105C67.5788 53.2231 68.2858 55.9568 69.6992 58.4115C71.1131 60.8662 72.9914 62.8189 75.335 64.2694C77.7159 65.7199 80.3201 66.4452 83.1469 66.4452ZM153.431 22.3158H167.884L137.361 106H122.909L133.009 78.1052L112.921 22.3158H127.819L139.816 59.4715L153.431 22.3158Z" fill="white"/>
<path d="M186.408 79.1095C183.507 78.9237 180.698 78.3469 177.982 77.38C175.304 76.3758 172.924 75.0185 170.84 73.3074C168.757 71.5964 167.157 69.5511 166.041 67.1706L177.536 62.2611C177.982 63.0048 178.708 63.8048 179.712 64.6601C180.717 65.4785 181.907 66.1664 183.283 66.7243C184.697 67.2822 186.241 67.5611 187.915 67.5611C189.329 67.5611 190.668 67.3753 191.932 67.0032C193.235 66.5943 194.276 65.9806 195.057 65.1622C195.876 64.3437 196.285 63.2837 196.285 61.9822C196.285 60.6058 195.802 59.5458 194.834 58.8022C193.904 58.0211 192.714 57.4448 191.263 57.0727C189.849 56.6638 188.473 56.2917 187.134 55.9569C183.6 55.2501 180.308 54.1532 177.257 52.6653C174.244 51.1774 171.808 49.2622 169.947 46.919C168.125 44.5385 167.213 41.6748 167.213 38.3275C167.213 34.6454 168.181 31.4654 170.115 28.7875C172.087 26.1096 174.634 24.0454 177.759 22.5949C180.921 21.1443 184.325 20.4191 187.971 20.4191C192.398 20.4191 196.452 21.3491 200.135 23.2085C203.855 25.0312 206.794 27.6159 208.951 30.9633L198.182 37.3233C197.661 36.4306 196.936 35.6122 196.006 34.8685C195.076 34.0875 194.016 33.4554 192.825 32.9717C191.635 32.4512 190.389 32.1533 189.087 32.0791C187.413 32.0049 185.888 32.1533 184.511 32.5254C183.135 32.8975 182.019 33.5296 181.163 34.4222C180.345 35.3148 179.935 36.5048 179.935 37.9927C179.935 39.4059 180.493 40.4659 181.609 41.1727C182.725 41.8422 184.065 42.3627 185.627 42.7348C187.227 43.1069 188.752 43.5159 190.203 43.9622C193.476 45.0406 196.545 46.3611 199.41 47.9232C202.311 49.4853 204.636 51.4006 206.385 53.6696C208.133 55.9385 208.97 58.6532 208.896 61.8148C208.896 65.4227 207.817 68.5837 205.659 71.299C203.502 73.9769 200.712 76.0227 197.289 77.4358C193.904 78.849 190.277 79.4069 186.408 79.1095ZM226.48 106H212.865V22.3159H226.48V29.4012C228.303 26.8722 230.535 24.8264 233.176 23.2643C235.855 21.6649 238.98 20.8654 242.551 20.8654C246.643 20.8654 250.456 21.628 253.99 23.1528C257.524 24.6775 260.63 26.7975 263.308 29.5127C266.024 32.1906 268.126 35.2964 269.614 38.8296C271.139 42.3627 271.902 46.1564 271.902 50.2106C271.902 54.2648 271.139 58.0769 269.614 61.6474C268.126 65.218 266.024 68.3606 263.308 71.0758C260.63 73.7537 257.524 75.8553 253.99 77.38C250.456 78.9048 246.643 79.6674 242.551 79.6674C238.98 79.6674 235.855 78.8864 233.176 77.3243C230.535 75.7248 228.303 73.6606 226.48 71.1316V106ZM242.383 33.9759C239.557 33.9759 237.027 34.7196 234.795 36.2075C232.563 37.658 230.814 39.6106 229.549 42.0654C228.285 44.5201 227.652 47.2354 227.652 50.2106C227.652 53.1859 228.285 55.9195 229.549 58.4117C230.814 60.8664 232.563 62.8374 234.795 64.3253C237.027 65.7758 239.557 66.5011 242.383 66.5011C245.248 66.5011 247.871 65.7758 250.251 64.3253C252.632 62.8748 254.529 60.9222 255.943 58.4674C257.357 55.9753 258.063 53.2232 258.063 50.2106C258.063 47.2354 257.357 44.5201 255.943 42.0654C254.529 39.6106 252.632 37.658 250.251 36.2075C247.908 34.7196 245.285 33.9759 242.383 33.9759ZM273.875 22.3159H287.49V78.1053H273.875V22.3159ZM280.794 15.1191C278.785 15.1191 277.093 14.468 275.716 13.1665C274.34 11.8275 273.651 10.1538 273.651 8.14541C273.651 6.17437 274.34 4.5191 275.716 3.18016C277.093 1.84121 278.767 1.17174 280.738 1.17174C282.71 1.17174 284.365 1.84121 285.704 3.18016C287.081 4.5191 287.769 6.17437 287.769 8.14541C287.769 10.1538 287.099 11.8275 285.76 13.1665C284.421 14.468 282.766 15.1191 280.794 15.1191ZM346 42.8464V78.1053H332.385V46.4169C332.385 44.2227 331.845 42.2327 330.767 40.4475C329.687 38.6248 328.237 37.1933 326.414 36.1517C324.629 35.0733 322.638 34.5338 320.444 34.5338C318.248 34.5338 316.24 35.0733 314.417 36.1517C312.632 37.1933 311.199 38.6248 310.121 40.4475C309.079 42.2327 308.558 44.2227 308.558 46.4169V78.1053H294.943L294.887 22.3159H308.502L308.558 27.2812C310.455 25.2728 312.724 23.6922 315.366 22.5391C318.007 21.3491 320.853 20.7538 323.903 20.7538C327.958 20.7538 331.659 21.758 335.007 23.7664C338.355 25.7375 341.015 28.397 342.987 31.7443C344.996 35.0543 346 38.7554 346 42.8464Z" fill="url(#paint0_linear_112_2)"/>
</g>
<defs>
<linearGradient id="paint0_linear_112_2" x1="256.021" y1="1.17174" x2="256.021" y2="106" gradientUnits="userSpaceOnUse">
<stop stop-color="#EDC531"/>
<stop offset="1" stop-color="#C9A227"/>
</linearGradient>
<clipPath id="clip0_112_2">
<rect width="346" height="106" fill="white"/>
</clipPath>
</defs>
</svg>
