<svg width="89" height="89" viewBox="0 0 89 89" fill="none" xmlns="http://www.w3.org/2000/svg">
<path d="M84.5478 51.0359C81.7064 47.2812 77.8256 44.5 72.8358 42.8312C77.2018 41.093 80.5283 38.5203 82.8846 35.0438C85.2408 31.4977 86.3496 27.5344 86.3496 23.0844C86.3496 19.6773 85.6566 16.5484 84.3399 13.7672C83.0232 10.9164 81.0827 8.55234 78.5879 6.46641C76.093 4.45 73.1824 2.85078 69.7866 1.73828C66.3215 0.55625 62.5099 0 58.4211 0H29.5917C16.1472 0 4.7818 8.96953 1.24743 21.2766C1.31673 21.4852 1.38603 21.6242 1.38603 21.8328L10.3952 53.3305L21.0676 21.6938C21.6914 19.8859 23.3546 18.6344 25.295 18.6344H26.196C28.1364 18.6344 29.7996 19.8859 30.4233 21.7633L41.0265 53.5391L50.4515 21.9023C51.0752 19.9555 52.7384 18.7039 54.6789 18.7039C57.243 18.7039 59.1142 20.8594 59.1142 23.293C59.1142 23.7102 59.0449 24.1969 58.9063 24.6836L46.2241 66.6805C45.5311 68.975 43.5213 70.4352 41.2344 70.4352H41.1651C38.8781 70.4352 36.9377 68.975 36.2447 66.8195L25.7108 35.2523L15.0384 66.8195C14.2761 68.975 12.3357 70.4352 10.118 70.4352C7.90037 70.4352 5.82132 68.9055 5.12831 66.6109L0 49.1586V59.3797C0 75.7195 13.2366 89 29.5917 89H60.2923C64.5197 89 68.3313 88.3742 71.7963 87.1922C75.2614 86.0102 78.2414 84.3414 80.8055 82.2555C83.3004 80.1 85.3101 77.5273 86.6961 74.5375C88.0822 71.5477 88.7752 68.2102 88.7752 64.525C88.7059 59.3102 87.3199 54.7906 84.5478 51.0359Z" fill="#03FF84"/>
</svg>
