<svg width="377" height="89" viewBox="0 0 377 89" fill="none" xmlns="http://www.w3.org/2000/svg">
<g clip-path="url(#clip0_1_119)">
<path d="M250.663 28.0906H260.504L269.721 57.6414L280.186 28.0906H289.749L300.006 57.7109L309.57 28.0906H319.341L304.719 70.9914H295.432L284.898 41.3016L274.087 70.9914H264.593L250.663 28.0906Z" fill="white"/>
<path d="M323.083 13.35C323.083 11.8898 323.499 10.7078 324.4 9.73438C325.301 8.83047 326.479 8.34375 328.004 8.34375C329.529 8.34375 330.776 8.83047 331.608 9.73438C332.439 10.6383 332.924 11.8898 332.924 13.35C332.924 14.8102 332.508 15.9922 331.608 16.8961C330.776 17.8 329.529 18.2172 328.004 18.2172C326.479 18.2172 325.232 17.8 324.4 16.8961C323.499 15.9922 323.083 14.8102 323.083 13.35ZM323.153 28.0906H332.855V70.9914H323.153V28.0906Z" fill="white"/>
<path d="M338.399 28.0906H347.963V33.9312C349.349 32.1234 351.081 30.7328 353.23 29.6203C355.309 28.5078 357.734 28.0211 360.437 28.0211C365.635 28.0211 369.654 29.6203 372.565 32.7492C375.475 35.9476 376.931 40.3281 376.931 45.9601V70.9219H367.159V47.1422C367.159 43.8742 366.397 41.3016 364.803 39.4242C363.209 37.5469 360.853 36.5734 357.734 36.5734C354.962 36.5734 352.675 37.5469 350.804 39.4937C348.933 41.4406 347.963 44.2914 347.963 47.907V70.9219H338.33L338.399 28.0906Z" fill="white"/>
<path d="M122.04 17.4523H141.929C144.147 17.4523 146.226 17.8 148.028 18.4953C149.899 19.1906 151.493 20.0945 152.81 21.3461C154.126 22.5281 155.235 23.9883 155.928 25.7266C156.691 27.3953 157.037 29.2726 157.037 31.3586C157.037 34.0703 156.413 36.4344 155.166 38.5203C153.919 40.6062 152.047 42.2055 149.691 43.2484C152.394 44.2914 154.542 45.8906 156.067 48.1851C157.592 50.4797 158.354 53.1914 158.354 56.2508C158.354 58.4758 157.938 60.4226 157.176 62.2305C156.413 64.0383 155.305 65.568 153.988 66.889C152.602 68.1406 150.939 69.1836 149.137 69.8789C147.266 70.5742 145.187 70.9219 142.9 70.9219H121.971L122.04 17.4523ZM126.129 21.2766V41.3711H142.553C144.147 41.3711 145.602 41.093 146.919 40.6062C148.167 40.1195 149.275 39.4242 150.176 38.4508C151.077 37.5469 151.77 36.5039 152.255 35.2523C152.74 34.0008 152.948 32.6797 152.948 31.2891C152.948 29.8984 152.671 28.5773 152.117 27.3258C151.562 26.1437 150.8 25.0312 149.76 24.1969C148.721 23.293 147.612 22.5976 146.226 22.1109C144.909 21.6242 143.385 21.3461 141.791 21.3461L126.129 21.2766ZM126.129 45.2648V67.0281H142.83C144.494 67.0281 146.018 66.75 147.474 66.1937C148.86 65.6375 150.107 64.8726 151.077 63.8992C152.117 62.9258 152.879 61.8133 153.433 60.4922C153.988 59.1711 154.265 57.7109 154.265 56.1812C154.265 54.6516 153.988 53.1914 153.503 51.8008C153.018 50.4797 152.255 49.2976 151.216 48.3242C150.176 47.3508 148.998 46.5859 147.612 46.0297C146.157 45.4734 144.563 45.1953 142.83 45.1953H126.129V45.2648Z" fill="#03FF84"/>
<path d="M183.788 70.9914C180.738 70.9914 177.897 70.4351 175.263 69.3226C172.63 68.2101 170.343 66.6805 168.403 64.6641C166.462 62.7172 164.937 60.4226 163.898 57.85C162.789 55.2773 162.235 52.4961 162.235 49.5062C162.235 46.5164 162.789 43.7351 163.898 41.1625C165.007 38.5203 166.531 36.2953 168.403 34.2789C170.343 32.332 172.63 30.8023 175.263 29.6203C177.897 28.5078 180.738 27.882 183.788 27.882C185.52 27.882 187.253 28.0906 188.985 28.5773C190.718 28.9945 192.381 29.6898 193.906 30.6633C195.43 31.5672 196.885 32.6797 198.133 34.0008C199.38 35.3219 200.489 36.8516 201.251 38.5203V28.0906H205.271V70.9914H201.251V60.6312C200.42 62.3 199.38 63.7601 198.133 65.0812C196.885 66.4023 195.43 67.5148 193.906 68.3492C192.381 69.1836 190.718 69.8789 188.985 70.2961C187.183 70.7828 185.52 70.9914 183.788 70.9914ZM183.926 67.0976C186.421 67.0976 188.777 66.6805 190.926 65.707C193.074 64.8031 194.945 63.5516 196.539 61.9523C198.133 60.3531 199.38 58.4758 200.281 56.3203C201.182 54.1648 201.598 51.8703 201.598 49.4367C201.598 47.0031 201.182 44.7086 200.281 42.5531C199.38 40.3976 198.133 38.5203 196.539 36.9211C194.945 35.3219 193.005 34.0703 190.926 33.1664C188.777 32.193 186.49 31.7758 183.926 31.7758C181.362 31.7758 179.214 32.193 177.065 33.1664C174.917 34.0703 173.046 35.3219 171.452 36.9211C169.858 38.5203 168.61 40.3976 167.71 42.5531C166.809 44.7086 166.393 47.0031 166.393 49.4367C166.393 51.9398 166.809 54.1648 167.71 56.3203C168.61 58.4758 169.858 60.3531 171.452 61.9523C173.046 63.5516 174.917 64.8031 177.065 65.707C179.214 66.6109 181.501 67.0976 183.926 67.0976Z" fill="#03FF84"/>
<path d="M227.725 68.6969L209.013 28.0211H213.587L229.942 63.9687L245.189 28.0211H249.624L227.24 80.6562H222.804L227.725 68.6969Z" fill="#03FF84"/>
<path d="M84.5478 51.0359C81.7064 47.2812 77.8256 44.5 72.8358 42.8312C77.2018 41.093 80.5283 38.5203 82.8846 35.0438C85.2408 31.4977 86.3496 27.5344 86.3496 23.0844C86.3496 19.6773 85.6566 16.5484 84.3399 13.7672C83.0232 10.9164 81.0827 8.55234 78.5879 6.46641C76.093 4.45 73.1824 2.85078 69.7866 1.73828C66.3215 0.55625 62.5099 0 58.4211 0H29.5917C16.1472 0 4.7818 8.96953 1.24743 21.2766C1.31673 21.4852 1.38603 21.6242 1.38603 21.8328L10.3952 53.3305L21.0676 21.6938C21.6914 19.8859 23.3546 18.6344 25.295 18.6344H26.196C28.1364 18.6344 29.7996 19.8859 30.4233 21.7633L41.0265 53.5391L50.4515 21.9023C51.0752 19.9555 52.7384 18.7039 54.6789 18.7039C57.243 18.7039 59.1142 20.8594 59.1142 23.293C59.1142 23.7102 59.0449 24.1969 58.9063 24.6836L46.2241 66.6805C45.5311 68.975 43.5213 70.4352 41.2344 70.4352H41.1651C38.8781 70.4352 36.9377 68.975 36.2447 66.8195L25.7108 35.2523L15.0384 66.8195C14.2761 68.975 12.3357 70.4352 10.118 70.4352C7.90037 70.4352 5.82132 68.9055 5.12831 66.6109L0 49.1586V59.3797C0 75.7195 13.2366 89 29.5917 89H60.2923C64.5197 89 68.3313 88.3742 71.7963 87.1922C75.2614 86.0102 78.2414 84.3414 80.8055 82.2555C83.3004 80.1 85.3101 77.5273 86.6961 74.5375C88.0822 71.5477 88.7752 68.2102 88.7752 64.525C88.7059 59.3102 87.3199 54.7906 84.5478 51.0359Z" fill="#03FF84"/>
</g>
<defs>
<clipPath id="clip0_1_119">
<rect width="377" height="89" fill="white"/>
</clipPath>
</defs>
</svg>
