<svg width="300" height="56" viewBox="0 0 300 56" fill="none" xmlns="http://www.w3.org/2000/svg">
<g clip-path="url(#clip0_1_28)">
<mask id="mask0_1_28" style="mask-type:luminance" maskUnits="userSpaceOnUse" x="66" y="3" width="235" height="40">
<path d="M300 3.06522H66.5814V42.9119H300V3.06522Z" fill="white"/>
</mask>
<g mask="url(#mask0_1_28)">
<path d="M90.8415 29.5553C89.9079 28.1838 88.6222 27.2105 86.9921 26.6052C89.6707 25.3102 91.0176 23.1493 91.0176 20.0995C91.0176 17.7471 90.1528 15.8619 88.4538 14.4213C86.7472 12.9884 84.2217 12.2681 80.8926 12.2681H66.5814V42.9041H81.3212C84.9028 42.9041 87.6197 42.1148 89.464 40.5593C91.316 38.996 92.2421 36.8045 92.2421 33.9998C92.2421 32.3907 91.7676 30.9041 90.8415 29.5478V29.5553ZM73.7369 18.0766H80.4257C81.5278 18.0766 82.3772 18.36 82.9972 18.9347C83.6017 19.5095 83.9002 20.2757 83.9002 21.2566C83.9002 22.291 83.6017 23.111 82.9972 23.7164C82.3772 24.3064 81.5278 24.6129 80.4257 24.6129H73.7369V18.0766ZM83.8314 36.1914C83.1426 36.7967 82.1629 37.0879 80.8926 37.0879H73.7369V30.1224H80.8926C83.5483 30.1224 84.8722 31.2872 84.8722 33.6091C84.8722 34.7278 84.5278 35.586 83.8314 36.1914Z" fill="url(#paint0_linear_1_28)"/>
<path d="M119.234 12.2605V18.7586H103.354V24.3141H117.787V30.4214H103.354V36.406H119.188V42.9041H96.1981V12.2605H119.234Z" fill="url(#paint1_linear_1_28)"/>
<path d="M123.619 12.2681H149.318V18.7662H140.051V42.9041H132.849V18.7662H123.619V12.2681Z" fill="url(#paint2_linear_1_28)"/>
<path d="M161.043 42.9041H153.888V12.2681H161.043V42.9041Z" fill="url(#paint3_linear_1_28)"/>
<path d="M185.21 18.6743V12.2605H192.029V42.9041H184.322L176.953 30.6897C174.697 26.8812 173.128 24.0919 172.262 22.3371C172.377 26.2759 172.431 30.9809 172.431 36.4981V42.9119H165.612V12.2605H173.319L180.688 24.475C182.809 28.0383 184.378 30.8429 185.386 32.9119C185.272 28.9272 185.219 24.1762 185.219 18.6666L185.21 18.6743Z" fill="url(#paint4_linear_1_28)"/>
<path d="M219.643 12.2605V18.7586H203.762V24.3141H218.197V30.4214H203.762V36.406H219.597V42.9041H196.607V12.2605H219.643Z" fill="url(#paint5_linear_1_28)"/>
<path d="M245.524 42.9117C242.624 42.9117 240.267 41.9384 238.453 39.9998C236.624 38.0764 235.714 35.4788 235.714 32.1838C235.714 28.8886 236.617 26.314 238.431 24.3676C240.245 22.429 242.602 21.4557 245.524 21.4557C247.821 21.4557 249.795 22.061 251.455 23.2719C253.117 24.5055 254.172 26.3217 254.64 28.7278H251.486C251.097 27.2259 250.384 26.0995 249.343 25.3409C248.303 24.5822 247.033 24.2067 245.533 24.2067C243.519 24.2067 241.928 24.9193 240.741 26.3522C239.555 27.7852 238.959 29.7316 238.959 32.1914C238.959 34.6512 239.555 36.5976 240.741 38.0305C241.928 39.4634 243.519 40.176 245.533 40.176C247.033 40.176 248.372 39.7316 249.559 38.8197C250.705 37.9155 251.395 36.6052 251.633 34.8657H254.755C254.502 37.4252 253.5 39.4098 251.747 40.8121C250.017 42.2143 247.943 42.9117 245.524 42.9117Z" fill="#AEB7C5"/>
<path d="M266.664 42.9117C263.586 42.9117 261.131 41.9155 259.302 39.9462C257.434 37.9921 256.493 35.3945 256.493 32.1838C256.493 28.9729 257.426 26.3983 259.302 24.3983C261.131 22.4366 263.586 21.4557 266.664 21.4557C269.74 21.4557 272.15 22.4366 274.026 24.3983C275.871 26.3983 276.797 28.996 276.797 32.1838C276.797 35.3714 275.871 37.9616 274.026 39.9462C272.159 41.9309 269.709 42.9117 266.664 42.9117ZM266.664 40.1378C268.76 40.1378 270.436 39.4098 271.684 37.9769C272.931 36.5745 273.552 34.6434 273.552 32.1838C273.552 29.724 272.924 27.7852 271.684 26.3522C270.414 24.9271 268.745 24.2143 266.664 24.2143C264.581 24.2143 262.905 24.9271 261.643 26.3522C260.372 27.8083 259.745 29.7622 259.745 32.1838C259.745 34.6052 260.381 36.5516 261.643 37.9769C262.89 39.4174 264.567 40.1378 266.664 40.1378Z" fill="#AEB7C5"/>
<path d="M291.528 32.5519L295.645 21.9159H300V42.4522H296.991V36.0231C296.991 31.3948 297.031 27.9234 297.107 25.6093C296.702 26.8431 296.112 28.4216 295.355 30.3679L290.655 42.4522H288.031L283.271 30.3679C282.628 28.6821 282.06 27.119 281.548 25.6936C281.633 27.9848 281.664 31.4253 281.664 36.0231V42.4522H278.655V21.9159H282.972L287.234 32.8507C288.114 35.119 288.819 37.05 289.362 38.6438C290.005 36.7357 290.733 34.7128 291.528 32.5519Z" fill="#AEB7C5"/>
<path d="M161.043 9.1955H153.888V3.06522H161.043V9.1955Z" fill="url(#paint6_linear_1_28)"/>
<path d="M231.703 42.9117H225.581V38.3141H231.703V42.9117Z" fill="#AEB7C5"/>
</g>
<mask id="mask1_1_28" style="mask-type:luminance" maskUnits="userSpaceOnUse" x="0" y="0" width="56" height="56">
<path d="M55.1724 0H0V55.1724H55.1724V0Z" fill="white"/>
</mask>
<g mask="url(#mask1_1_28)">
<path d="M35.5357 28.2819C35.1433 28.6745 35.1433 29.3147 35.5357 29.7072L43.3005 37.4721C44.0114 38.1828 44.5526 38.8498 44.905 39.4824C45.389 40.3474 45.5224 41.1497 45.2633 41.9157C45.1109 42.3712 44.8231 42.8114 44.3867 43.2476C43.9903 43.644 43.5636 43.926 43.1005 44.0784C42.4488 44.2938 41.7286 44.2557 40.9359 43.9222C40.1814 43.604 39.36 43.0171 38.4721 42.1291L32.1402 35.7991C31.7457 35.4047 31.1074 35.4047 30.7148 35.7991C30.5167 35.9953 30.4195 36.2526 30.4195 36.5117C30.4195 36.7709 30.5167 37.03 30.7148 37.2262L37.426 43.9374C38.1502 44.6615 38.7179 45.3609 39.1162 46.0315C39.4097 46.5252 39.6115 47.0015 39.7183 47.4607C39.9869 48.5888 39.6897 49.6178 38.7731 50.5343C37.7824 51.5271 36.6867 51.8738 35.5262 51.6528C35.0079 51.5576 34.4764 51.3479 33.9352 51.0315C33.2797 50.6486 32.6109 50.1112 31.9307 49.431L26.5667 44.0671C26.1741 43.6745 25.534 43.6745 25.1414 44.0671L25.09 44.1184C24.6974 44.511 24.6974 45.1512 25.09 45.5438L30.7226 51.1764C31.6467 52.1005 32.6033 52.8322 33.5655 53.341C29.4153 56.1574 23.7179 55.7248 20.0403 52.0472L3.12546 35.1321C-1.04182 30.9648 -1.04182 24.2079 3.12546 20.0405L20.0403 3.1255C24.2078 -1.04183 30.9645 -1.04183 35.1317 3.1255L38.4607 6.45439C34.2762 6.39724 26.8029 6.68496 24.1886 11.5802C22.0316 15.6198 20.2367 18.1274 18.7047 19.246C17.7348 19.9567 16.8259 20.776 16.7534 21.969C16.6791 23.1979 17.5422 24.0059 17.8662 24.309C17.931 24.3698 18.0397 24.49 18.1521 24.6157C19.16 25.7303 21.5171 28.3448 26.6791 26.4774L26.801 26.4336L27.0202 26.3134C28.2626 25.6409 29.3353 25.0578 32.5041 22.0109C32.851 21.7669 33.3731 21.4602 34.3505 21.5555C35.4995 21.6679 37.5517 22.3748 40.8026 25.1053L40.8691 25.1588C42.7822 26.6088 46.8238 31.264 48.4816 33.2914C49.0247 33.9526 49.4878 34.509 49.8707 34.9683C50.2728 35.4503 50.5891 35.8295 50.7948 36.0926L50.9226 36.2564L47.4926 39.6862C47.0202 38.541 46.1569 37.3769 45.0079 36.2259L37.0126 28.2303C36.62 27.8379 35.9798 27.8379 35.5872 28.2303L35.5357 28.2819Z" fill="url(#paint7_linear_1_28)"/>
<path d="M52.1431 35.0331C51.7164 34.49 50.9312 33.5772 49.809 32.2053C48.2845 30.3417 44.0505 25.4198 41.905 23.7926C35.1864 18.1484 32.4195 19.9548 31.404 20.6884C28.2409 23.7372 27.3376 24.189 26.0952 24.8653C21.4096 26.5593 19.9424 23.9069 19.0393 23.059C18.136 22.2129 18.2484 21.7041 19.7157 20.6314C21.1848 19.5584 23.0465 17.3578 25.7009 12.3881C28.2465 7.62248 37.29 8.15602 40.2129 8.20747L52.046 20.0407C56.1809 24.1755 56.2133 30.86 52.1431 35.0331Z" fill="#F0B905"/>
</g>
</g>
<defs>
<linearGradient id="paint0_linear_1_28" x1="79.4117" y1="12.2681" x2="79.4117" y2="42.9041" gradientUnits="userSpaceOnUse">
<stop stop-color="white"/>
<stop offset="1" stop-color="#ADBCC6"/>
</linearGradient>
<linearGradient id="paint1_linear_1_28" x1="107.716" y1="12.2605" x2="107.716" y2="42.9041" gradientUnits="userSpaceOnUse">
<stop stop-color="white"/>
<stop offset="1" stop-color="#ADBCC6"/>
</linearGradient>
<linearGradient id="paint2_linear_1_28" x1="136.469" y1="12.2681" x2="136.469" y2="42.9041" gradientUnits="userSpaceOnUse">
<stop stop-color="white"/>
<stop offset="1" stop-color="#ADBCC6"/>
</linearGradient>
<linearGradient id="paint3_linear_1_28" x1="157.466" y1="12.2681" x2="157.466" y2="42.9041" gradientUnits="userSpaceOnUse">
<stop stop-color="white"/>
<stop offset="1" stop-color="#ADBCC6"/>
</linearGradient>
<linearGradient id="paint4_linear_1_28" x1="178.821" y1="12.2605" x2="178.821" y2="42.9119" gradientUnits="userSpaceOnUse">
<stop stop-color="white"/>
<stop offset="1" stop-color="#ADBCC6"/>
</linearGradient>
<linearGradient id="paint5_linear_1_28" x1="208.126" y1="12.2605" x2="208.126" y2="42.9041" gradientUnits="userSpaceOnUse">
<stop stop-color="white"/>
<stop offset="1" stop-color="#ADBCC6"/>
</linearGradient>
<linearGradient id="paint6_linear_1_28" x1="157.466" y1="3.06522" x2="157.466" y2="9.1955" gradientUnits="userSpaceOnUse">
<stop stop-color="white"/>
<stop offset="1" stop-color="#ADBCC6"/>
</linearGradient>
<linearGradient id="paint7_linear_1_28" x1="25.4612" y1="-1.72414e-06" x2="25.4612" y2="55.1724" gradientUnits="userSpaceOnUse">
<stop stop-color="white"/>
<stop offset="1" stop-color="#ADBCC6"/>
</linearGradient>
<clipPath id="clip0_1_28">
<rect width="300" height="55.1724" fill="white"/>
</clipPath>
</defs>
</svg>
