<svg width="56" height="56" viewBox="0 0 56 56" fill="none" xmlns="http://www.w3.org/2000/svg">
<path d="M35.5357 28.2819C35.1433 28.6745 35.1433 29.3147 35.5357 29.7072L43.3005 37.4721C44.0114 38.1828 44.5526 38.8498 44.905 39.4824C45.389 40.3474 45.5224 41.1497 45.2633 41.9157C45.1109 42.3712 44.8231 42.8114 44.3867 43.2476C43.9903 43.644 43.5636 43.926 43.1005 44.0784C42.4488 44.2938 41.7286 44.2557 40.9359 43.9222C40.1814 43.604 39.36 43.0171 38.4721 42.1291L32.1402 35.7991C31.7457 35.4047 31.1074 35.4047 30.7148 35.7991C30.5167 35.9953 30.4195 36.2526 30.4195 36.5117C30.4195 36.7709 30.5167 37.03 30.7148 37.2262L37.426 43.9374C38.1502 44.6615 38.7179 45.3609 39.1162 46.0315C39.4097 46.5252 39.6115 47.0015 39.7183 47.4607C39.9869 48.5888 39.6897 49.6178 38.7731 50.5343C37.7824 51.5271 36.6867 51.8738 35.5262 51.6528C35.0079 51.5576 34.4764 51.3479 33.9352 51.0315C33.2797 50.6486 32.6109 50.1112 31.9307 49.431L26.5667 44.0671C26.1741 43.6745 25.534 43.6745 25.1414 44.0671L25.09 44.1184C24.6974 44.511 24.6974 45.1512 25.09 45.5438L30.7226 51.1764C31.6467 52.1005 32.6033 52.8322 33.5655 53.341C29.4153 56.1574 23.7179 55.7248 20.0403 52.0472L3.12546 35.1321C-1.04182 30.9648 -1.04182 24.2079 3.12546 20.0405L20.0403 3.1255C24.2078 -1.04183 30.9645 -1.04183 35.1317 3.1255L38.4607 6.45439C34.2762 6.39724 26.8029 6.68496 24.1886 11.5802C22.0316 15.6198 20.2367 18.1274 18.7047 19.246C17.7348 19.9567 16.8259 20.776 16.7534 21.969C16.6791 23.1979 17.5422 24.0059 17.8662 24.309C17.931 24.3698 18.0397 24.49 18.1521 24.6157C19.16 25.7303 21.5171 28.3448 26.6791 26.4774L26.801 26.4336L27.0202 26.3134C28.2626 25.6409 29.3353 25.0578 32.5041 22.0109C32.851 21.7669 33.3731 21.4602 34.3505 21.5555C35.4995 21.6679 37.5517 22.3748 40.8026 25.1053L40.8691 25.1588C42.7822 26.6088 46.8238 31.264 48.4816 33.2914C49.0247 33.9526 49.4878 34.509 49.8707 34.9683C50.2728 35.4503 50.5891 35.8295 50.7948 36.0926L50.9226 36.2564L47.4926 39.6862C47.0202 38.541 46.1569 37.3769 45.0079 36.2259L37.0126 28.2303C36.62 27.8379 35.9798 27.8379 35.5872 28.2303L35.5357 28.2819Z" fill="url(#paint0_linear_1_47)"/>
<path d="M52.1431 35.0331C51.7164 34.49 50.9312 33.5772 49.809 32.2053C48.2845 30.3417 44.0505 25.4198 41.905 23.7926C35.1864 18.1484 32.4195 19.9548 31.404 20.6884C28.2409 23.7372 27.3376 24.189 26.0952 24.8653C21.4096 26.5593 19.9424 23.9069 19.0393 23.059C18.136 22.2129 18.2484 21.7041 19.7157 20.6314C21.1848 19.5584 23.0465 17.3578 25.7009 12.3881C28.2465 7.62248 37.29 8.15602 40.2129 8.20747L52.046 20.0407C56.1809 24.1755 56.2133 30.86 52.1431 35.0331Z" fill="#F0B905"/>
<defs>
<linearGradient id="paint0_linear_1_47" x1="25.4612" y1="-1.72414e-06" x2="25.4612" y2="55.1724" gradientUnits="userSpaceOnUse">
<stop stop-color="white"/>
<stop offset="1" stop-color="#ADBCC6"/>
</linearGradient>
</defs>
</svg>
