<svg width="224" height="77" viewBox="0 0 224 77" fill="none" xmlns="http://www.w3.org/2000/svg">
<g clip-path="url(#clip0_1_4)">
<path d="M38.5656 16.4937C35.35 14.0219 31.8719 13.4312 20.8688 13.4312C14.3281 13.4312 10.6094 13.825 8.00625 15.7062V0H0V48.5844H7.9625V46.7031C10.5875 48.65 14.35 49.0219 21.7 49.0219C29.5531 49.0219 32.9875 48.6719 35.8094 47.5562C41.5188 45.2375 43.925 40.5125 43.925 31.7187C43.925 23.7781 42.4156 19.4906 38.5656 16.4937ZM23.4719 41.5625C16.3625 41.5625 12.8188 41.2344 11.2 40.425C8.94688 39.3969 7.875 37.7562 7.875 31.2812C7.875 21.6344 9.84375 20.8469 20.9344 20.8469C27.2344 20.8469 30.4938 21.1531 32.1563 21.9406C34.2125 22.9031 35.5688 24.8719 35.5688 31.3469C35.5469 40.1187 33.8625 41.5625 23.4719 41.5625Z" fill="#30C799"/>
<path d="M81.8563 35.7656L81.725 37.1437C81.55 39.1125 81.4188 39.2 81.0031 39.6375L80.9594 39.6812C79.7125 41.0812 77.0875 41.5625 70.525 41.5625C61.7094 41.5625 58.3844 41.0375 56.8313 39.4187C55.825 38.3687 55.2563 36.6406 55.0375 33.8844H90.125V32.3312C89.95 24.4344 89.1625 21.2625 86.5375 18.2C83.2563 14.5031 79.2313 13.5187 67.8125 13.5187C59.7406 13.5187 56.0875 14.0437 53.2438 15.6187C48.5844 18.1781 46.5281 23.0125 46.5281 31.3469C46.5281 38.3906 48.1906 43.0719 51.625 45.7406C54.7313 48.1469 59.6531 48.9781 71.0938 48.9781C86.625 48.9781 89.8625 44.5156 90.0594 37.3187L90.1031 35.7437H81.9219H81.8563V35.7656ZM67.6594 20.9562C79.0125 20.9562 81.1125 22.4437 81.4625 26.5562H55.2344C55.8469 22.3562 57.7719 20.9562 67.6594 20.9562Z" fill="#30C799"/>
<path d="M128.603 31.1937V34.6937C128.603 39.9219 128.122 42.2187 126.634 44.4281C124.491 47.6656 120.684 49.0219 113.444 49.0219C106.203 49.0219 102.2 47.8187 100.012 44.8219C98.4156 42.6125 97.9562 40.3375 97.9562 35.0656V21.2844H90.1906V13.9125H97.9562V6.08124H105.962V13.9125H128.056V21.2844H105.962V33.4687C106.05 37.2094 106.334 39.375 106.772 39.9437C107.581 40.9281 109.091 41.5844 113.903 41.5844C118.169 41.5844 119.197 41.125 119.853 40.0969C120.334 39.3531 120.553 38.5656 120.553 34.7156V31.2156L128.603 31.1937Z" fill="#30C799"/>
<path d="M138.906 13.9125H130.9V48.5844H138.906V13.9125Z" fill="white"/>
<path d="M138.906 0H130.9V9.0125H138.906V0Z" fill="white"/>
<path d="M185.194 38.1063C185.194 42.525 183.75 45.3906 180.666 47.0969C178.172 48.4531 173.534 48.9781 164.128 48.9781C152.753 48.9781 148.488 48.3656 145.797 46.375C142.844 44.2313 142.231 41.3438 142.231 37.6906V34.5188H150.478L150.588 35.9188L150.653 36.8156V36.9469C150.653 38.9594 150.784 39.8344 151.222 40.2719C152.381 41.4531 157.172 41.5406 164.325 41.5406C172.419 41.5406 174.934 41.2781 176.05 40.3594C176.444 40.0531 176.816 39.55 176.816 38.15C176.816 36.2688 176.816 34.7813 170.45 34.7813H169.969C168.591 34.7813 167.563 34.7813 155.509 34.65C147.853 34.5188 142.778 32.725 142.778 24.3688C142.778 20.475 144.134 17.5656 146.825 15.7719C149.406 14.1094 154.197 13.4969 163.866 13.4969C175.175 13.4969 179.659 14.5906 182.284 18.0031C183.816 19.8844 184.056 21.3719 184.056 25.1781V26.7094H175.656V25.1781C175.656 22.9031 175.438 22.6844 175.219 22.4875L175.175 22.4438L175.131 22.4C173.709 20.8906 166.119 20.8906 163.625 20.8906C154.897 20.8906 152.556 21.6781 151.9 22.1594C151.703 22.2906 151.113 22.7281 151.113 24.3906C151.113 26.0531 151.113 27.0375 157.544 27.0375C158.003 27.0375 158.463 27.0375 158.944 27.0375C159.25 27.0375 159.688 27.0375 160.213 27.0375C163.472 27.0375 170.603 27.2125 173.556 27.3438C181.584 27.6938 185.172 31.0188 185.194 38.1063Z" fill="white"/>
<path d="M223.978 31.1937V34.6937C223.978 39.9219 223.519 42.2187 222.031 44.4281C219.887 47.6656 216.059 49.0219 208.841 49.0219C201.622 49.0219 197.575 47.8187 195.409 44.8219C193.834 42.6125 193.353 40.3375 193.353 35.0656V21.2844H185.587V13.9125H193.353V6.08124H201.359V13.9125H223.453V21.2844H201.359V33.4687C201.447 37.2094 201.731 39.375 202.191 39.9437C202.978 40.9281 204.509 41.5844 209.322 41.5844C213.587 41.5844 214.616 41.125 215.272 40.0969C215.753 39.3531 215.994 38.5656 215.994 34.7156V31.2156L223.978 31.1937Z" fill="white"/>
<path d="M106.4 64.4656C105.831 63.7219 104.956 63.3281 103.731 63.3281C103.272 63.3281 102.812 63.3937 102.375 63.5468C101.916 63.6781 101.5 63.8968 101.106 64.2031C100.8 64.4218 100.45 64.6844 100.188 64.9906C100.275 64.6625 100.319 64.3343 100.362 63.9843C100.406 63.5906 100.406 63.2187 100.406 62.8031V59.5219H98V72.5812C98.3063 72.7125 98.6781 72.8219 99.0719 72.8875C99.4656 72.975 99.9031 73.0406 100.319 73.1062C100.756 73.1719 101.194 73.2156 101.587 73.2375C102.003 73.2593 102.397 73.2812 102.703 73.2812C103.622 73.2812 104.366 73.15 104.956 72.9312C105.525 72.7125 106.006 72.3625 106.334 71.925C106.663 71.4875 106.903 70.9406 107.056 70.3281C107.187 69.7156 107.275 69.0156 107.275 68.2719C107.275 66.5 106.991 65.2312 106.4 64.4656ZM104.584 70.2187C104.453 70.7 104.234 71.0281 103.906 71.225C103.6 71.4219 103.162 71.5312 102.659 71.5312C102.397 71.5312 102.091 71.5312 101.763 71.5093C101.434 71.4875 101.106 71.4437 100.8 71.3781C100.669 71.3562 100.494 71.3343 100.362 71.2687V66.2812C100.778 65.975 101.172 65.7344 101.478 65.5594C101.872 65.3406 102.309 65.2312 102.791 65.2312C103.316 65.2312 103.731 65.3187 104.016 65.5156C104.322 65.6906 104.497 65.9969 104.606 66.4344C104.716 66.8937 104.759 67.4844 104.759 68.2719C104.781 69.0594 104.716 69.7375 104.584 70.2187Z" fill="#B6BCCE"/>
<path d="M116.725 64.6406C116.463 64.1594 116.047 63.8094 115.522 63.6344C114.997 63.4375 114.341 63.3281 113.553 63.3281C113.094 63.3281 112.547 63.35 111.978 63.3719C111.409 63.3938 110.797 63.4594 110.228 63.525C109.659 63.5906 109.134 63.6562 108.697 63.7437L108.916 65.3625C109.681 65.2969 110.447 65.2313 111.191 65.2094C111.934 65.1656 112.547 65.1656 113.05 65.1656C113.728 65.1656 114.166 65.275 114.406 65.4937C114.625 65.7125 114.756 66.0844 114.756 66.5875V67.2H111.038C110.141 67.2 109.484 67.4188 108.959 67.8344C108.478 68.25 108.216 68.8406 108.216 69.5844V70.5906C108.216 71.1813 108.347 71.6625 108.609 72.0562C108.85 72.45 109.222 72.7344 109.681 72.9531C110.141 73.15 110.666 73.2594 111.234 73.2594C111.803 73.2594 112.306 73.1719 112.766 72.9969C113.225 72.8438 113.641 72.625 113.991 72.3625C114.341 72.1 114.669 71.8375 114.909 71.575C114.953 71.5313 114.953 71.5094 114.975 71.4875L115.216 73.0625H117.097V66.6313C117.097 65.8 116.966 65.1219 116.703 64.6625H116.725V64.6406ZM113.05 71.2469C112.613 71.3781 112.219 71.4656 111.869 71.4656C111.431 71.4656 111.103 71.3781 110.884 71.1594C110.666 70.9625 110.578 70.6781 110.578 70.3062V69.7812C110.578 69.4531 110.666 69.1906 110.841 68.9937C110.994 68.775 111.278 68.6875 111.672 68.6875H114.734V70.35C114.603 70.4813 114.472 70.5687 114.341 70.6562C113.903 70.9187 113.466 71.1156 113.05 71.2469Z" fill="#B6BCCE"/>
<path d="M127.925 65.9312V73.0625H125.563V66.6531C125.563 66.1281 125.475 65.7781 125.3 65.5812C125.125 65.3843 124.819 65.2968 124.381 65.2968C123.9 65.2968 123.397 65.3843 122.894 65.6031C122.478 65.8 121.931 66.0625 121.319 66.3906V73.0625H118.934V59.5219H121.319V63C121.341 63.4812 121.319 63.9187 121.275 64.3562C121.231 64.575 121.231 64.7937 121.188 64.9687C121.844 64.4875 122.456 64.0937 123.113 63.8094C123.856 63.5031 124.578 63.3281 125.3 63.3281C127.05 63.3281 127.947 64.2031 127.925 65.9312Z" fill="#B6BCCE"/>
<path d="M132.213 63.5688V73.0625H129.828V63.5688H132.213ZM131.403 59.5C131.863 59.5 132.081 59.7188 132.081 60.1562V61.2062C132.081 61.6656 131.863 61.8844 131.403 61.8844H130.659C130.2 61.8844 129.981 61.6656 129.981 61.2062V60.1562C129.981 59.7188 130.2 59.5 130.659 59.5H131.403Z" fill="#B6BCCE"/>
<path d="M137.637 63.3281C138.075 63.3281 138.556 63.3281 139.081 63.3719C139.584 63.4156 140.087 63.4375 140.612 63.4813C141.137 63.525 141.553 63.5906 141.947 63.6563L141.794 65.1875C141.159 65.1875 140.525 65.1438 139.912 65.1438C139.3 65.1219 138.687 65.1 138.075 65.1C137.528 65.1 137.112 65.1 136.806 65.1438C136.5 65.1875 136.281 65.2531 136.15 65.3625C136.019 65.4938 135.953 65.7125 135.953 66.0188C135.953 66.3906 136.062 66.6531 136.259 66.7625C136.456 66.8719 136.806 67.0031 137.266 67.1125L139.891 67.7031C140.678 67.9 141.269 68.1844 141.641 68.5781C142.012 68.9719 142.209 69.5844 142.209 70.3719C142.209 71.1594 142.078 71.75 141.772 72.1656C141.466 72.5813 141.028 72.8438 140.372 72.9969C139.737 73.1281 138.928 73.2156 137.966 73.2156C137.572 73.2156 137.025 73.2156 136.281 73.1719C135.537 73.1281 134.728 73.0406 133.831 72.9094L133.984 71.3781C134.247 71.3781 134.553 71.3781 134.903 71.4C135.253 71.4219 135.647 71.4219 136.062 71.4219H137.331C138.031 71.4219 138.556 71.4 138.928 71.3563C139.3 71.3125 139.562 71.225 139.694 71.05C139.825 70.9188 139.912 70.6781 139.912 70.3938C139.912 70.0219 139.781 69.8031 139.541 69.6719C139.3 69.5406 138.95 69.4313 138.469 69.3219L135.887 68.7094C135.297 68.5563 134.837 68.3594 134.531 68.1188C134.203 67.8781 133.962 67.5719 133.831 67.2219C133.7 66.8719 133.612 66.4344 133.612 65.9094C133.612 65.2094 133.744 64.6625 134.006 64.2906C134.269 63.9188 134.706 63.6344 135.275 63.4813C135.844 63.3281 136.631 63.2625 137.594 63.2625L137.637 63.3281Z" fill="#B6BCCE"/>
<path d="M146.059 63.5688V73.0625H143.675V63.5688H146.059ZM145.25 59.5C145.709 59.5 145.928 59.7188 145.928 60.1562V61.2062C145.928 61.6656 145.709 61.8844 145.25 61.8844H144.506C144.047 61.8844 143.828 61.6656 143.828 61.2062V60.1562C143.828 59.7188 144.047 59.5 144.506 59.5H145.25Z" fill="#B6BCCE"/>
<path d="M157.041 65.9312V73.0625H154.678V66.6531C154.678 66.1281 154.591 65.7781 154.394 65.5812C154.219 65.3844 153.913 65.2969 153.475 65.2969C152.994 65.2969 152.491 65.4062 151.988 65.6031C151.572 65.7781 151.025 66.0406 150.413 66.3687V73.0625H148.028V63.5688H149.975L150.172 65.0562C150.85 64.5094 151.528 64.0938 152.228 63.7875C152.972 63.4813 153.672 63.3281 154.372 63.3281C156.166 63.3281 157.041 64.2031 157.041 65.9312Z" fill="#B6BCCE"/>
<path d="M171.128 63.5688L167.519 73.3469C167.344 73.8063 167.125 74.2656 166.862 74.7031C166.6 75.1625 166.294 75.5563 165.878 75.9063C165.484 76.2781 165.025 76.5625 164.478 76.7594C163.953 76.9781 163.319 77.0438 162.619 76.9781L162.422 75.6C163.231 75.3813 163.822 75.075 164.259 74.7031C164.675 74.3094 165.047 73.85 165.287 73.2594L165.375 73.0406H164.937C164.741 73.0406 164.587 72.9969 164.456 72.8875C164.325 72.7782 164.216 72.6469 164.172 72.4719L160.847 63.5469H163.362L165.506 70.0875C165.55 70.3063 165.637 70.525 165.681 70.7438C165.725 70.9625 165.769 71.1813 165.812 71.4H166.075C166.119 71.2688 166.162 71.1594 166.206 71.0063C166.316 70.6344 166.425 70.3281 166.491 70.0656L168.591 63.525H171.128V63.5688Z" fill="#B6BCCE"/>
<path d="M178.172 71.3344C177.516 71.3781 176.991 71.4 176.509 71.4C175.853 71.4 175.328 71.3125 174.934 71.1375C174.541 70.9625 174.256 70.6344 174.103 70.1531C173.994 69.8688 173.928 69.5406 173.884 69.125H177.756C178.762 69.125 179.441 68.9062 179.878 68.4688C180.294 68.0312 180.534 67.375 180.491 66.5C180.469 65.45 180.141 64.6625 179.441 64.1375C178.762 63.5906 177.647 63.3281 176.072 63.3281C174.978 63.3281 174.059 63.4813 173.359 63.7875C172.659 64.0938 172.156 64.6188 171.828 65.3406C171.522 66.0844 171.347 67.0687 171.347 68.3156C171.347 69.475 171.5 70.4156 171.828 71.1594C172.156 71.9031 172.659 72.4281 173.359 72.7781C174.103 73.1063 175.022 73.2812 176.203 73.2812C176.619 73.2812 177.1 73.2594 177.581 73.2156C178.062 73.1719 178.544 73.1062 179.003 73.0187C179.462 72.9094 179.878 72.8 180.228 72.6688L179.987 71.1812C179.419 71.2469 178.806 71.2906 178.172 71.3344ZM174.037 66.2375C174.169 65.8 174.409 65.4938 174.759 65.3188C175.087 65.1438 175.591 65.0562 176.203 65.0562C176.925 65.0562 177.406 65.1656 177.691 65.3625C177.997 65.5812 178.15 65.9312 178.15 66.4562C178.15 66.7844 178.106 67.0688 177.975 67.3094C177.844 67.5281 177.581 67.6594 177.122 67.6594H173.841C173.841 67.0687 173.906 66.5875 174.037 66.2375Z" fill="#B6BCCE"/>
<path d="M190.838 65.9312V73.0625H188.475V66.6531C188.475 66.1281 188.388 65.7781 188.191 65.5812C188.016 65.3844 187.709 65.2969 187.272 65.2969C186.791 65.2969 186.288 65.4062 185.784 65.6031C185.347 65.7781 184.822 66.0406 184.209 66.3687V73.0625H181.825V63.5688H183.794L183.969 65.0562C184.647 64.5094 185.325 64.0938 186.025 63.7875C186.769 63.4813 187.469 63.3281 188.169 63.3281C189.963 63.3281 190.859 64.2031 190.838 65.9312Z" fill="#B6BCCE"/>
<path d="M195.103 63.5688V73.0625H192.719V63.5688H195.103ZM194.316 59.5C194.775 59.5 194.994 59.7188 194.994 60.1562V61.2062C194.994 61.6656 194.775 61.8844 194.316 61.8844H193.572C193.113 61.8844 192.894 61.6656 192.894 61.2062V60.1562C192.894 59.7188 193.113 59.5 193.572 59.5H194.316Z" fill="#B6BCCE"/>
<path d="M207.988 67.2219V68.6656H203.569C203.175 68.6656 202.891 68.7969 202.738 68.9719C202.584 69.1687 202.475 69.4312 202.475 69.7594V70.2844C202.475 70.6781 202.584 70.9625 202.781 71.1594C202.978 71.3562 203.328 71.4656 203.766 71.4656C204.116 71.4656 204.509 71.4 204.947 71.2469C205.363 71.1156 205.8 70.9187 206.216 70.6344C206.631 70.35 207.025 70.0437 207.375 69.6719V70.8969C207.244 71.0938 207.069 71.3125 206.806 71.575C206.566 71.8375 206.238 72.1 205.888 72.3625C205.538 72.625 205.122 72.8438 204.641 72.9969C204.159 73.15 203.656 73.2375 203.109 73.2375C202.541 73.2375 202.016 73.1281 201.556 72.9312C201.097 72.7344 200.725 72.45 200.463 72.0344C200.2 71.6406 200.069 71.1594 200.069 70.5906V69.5844C200.069 68.8406 200.309 68.25 200.813 67.8344C201.316 67.4188 201.994 67.2 202.869 67.2H207.944L207.988 67.2219ZM205.428 63.3281C206.194 63.3281 206.85 63.4375 207.397 63.6344C207.944 63.8312 208.338 64.1812 208.6 64.6406C208.863 65.1219 208.994 65.7781 208.994 66.6094V73.0625H207.113L206.784 71.0063L206.609 70.7437V66.6094C206.609 66.1062 206.478 65.7344 206.259 65.5156C206.041 65.2969 205.581 65.1875 204.903 65.1875C204.422 65.1875 203.788 65.2094 203.022 65.2313C202.278 65.275 201.513 65.3187 200.769 65.3844L200.55 63.7656C201.009 63.6781 201.534 63.5906 202.103 63.5469C202.672 63.4812 203.263 63.4156 203.853 63.3937C204.444 63.35 204.969 63.35 205.45 63.35L205.428 63.3281Z" fill="#B6BCCE"/>
<path d="M214.069 63.3281C214.725 63.3281 215.359 63.4156 215.994 63.5906C216.628 63.7656 217.175 64.05 217.7 64.4438L217.547 65.625C217.044 65.4938 216.584 65.3625 216.191 65.2531C215.797 65.1437 215.337 65.1 214.834 65.1C214.353 65.1 214.003 65.1875 213.719 65.3406C213.434 65.4938 213.237 65.8219 213.084 66.2594C212.953 66.7187 212.866 67.3531 212.866 68.2281C212.866 69.1031 212.931 69.6719 213.062 70.1313C213.194 70.5688 213.391 70.875 213.675 71.05C213.959 71.225 214.309 71.3125 214.747 71.3125C215.097 71.3125 215.403 71.2687 215.688 71.1812C215.972 71.0937 216.256 70.9625 216.519 70.7875C216.803 70.6125 217.131 70.3938 217.525 70.1313L217.722 71.4438C217.284 71.9469 216.716 72.3625 216.081 72.7344C215.425 73.0844 214.681 73.2594 213.85 73.2594C212.625 73.2594 211.75 72.8438 211.225 71.9688C210.7 71.1156 210.438 69.8687 210.438 68.2281C210.438 66.9812 210.569 65.9969 210.831 65.275C211.094 64.5531 211.487 64.05 212.034 63.7437C212.559 63.4812 213.237 63.3063 214.069 63.3281ZM219.625 59.5219V73.0625H217.766L217.503 71.3563L217.241 71.1594V64.8156L217.372 64.5531C217.328 64.1813 217.284 63.8094 217.263 63.4156C217.263 63.0219 217.241 62.65 217.241 62.2344V59.5H219.625V59.5219Z" fill="#B6BCCE"/>
<path d="M223.978 63.5687V73.0625H221.594V63.5687H223.978Z" fill="#B6BCCE"/>
</g>
<defs>
<clipPath id="clip0_1_4">
<rect width="224" height="77" fill="white"/>
</clipPath>
</defs>
</svg>
