<svg width="243" height="60" viewBox="0 0 243 60" fill="none" xmlns="http://www.w3.org/2000/svg">
<g clip-path="url(#clip0_1_128)">
<path d="M16.281 46.7077C6.9255 46.7077 0 39.877 0 30.6462V1.35388H8.6265V17.3539C10.8742 15.6308 13.7295 14.5231 16.767 14.5231C26.1225 14.5231 32.562 21.1693 32.562 30.6462C32.562 39.4462 25.5757 46.7077 16.281 46.7077ZM16.281 38.4616C20.7157 38.4616 23.9355 34.9539 23.9355 30.6462C23.9355 26.3385 20.7157 22.7693 16.281 22.7693C11.8462 22.7693 8.6265 26.3385 8.6265 30.6462C8.6265 34.9539 11.8462 38.4616 16.281 38.4616ZM47.1335 46.6462C37.778 46.6462 30.731 40.0616 30.731 30.3385C30.731 21.5385 37.049 14.277 46.3437 14.277C55.8815 14.277 61.4097 21.4154 61.4097 29.7231V32.3077H39.0537C39.6612 36.3693 42.7595 39.077 47.0727 39.077C50.3532 39.077 53.087 37.477 54.4842 34.6462L61.106 38.0308C58.4937 43.5077 53.5122 46.6462 47.1335 46.6462ZM39.4182 27.4462H52.844C52.4795 24.3077 49.928 21.9077 46.283 21.9077C42.5165 21.9077 40.0257 24.3693 39.4182 27.4462ZM77.1431 46.7077C68.4558 46.7077 64.1426 41.4154 64.1426 33.7846V22.7693H58.6143V15.3847H64.1426V7.63081H72.7691V15.3847H83.4003V22.7693H72.7691V33.5385C72.7691 36.9231 74.7738 38.8923 77.9328 38.8923C79.6946 38.8923 81.9423 38.3385 83.4003 37.4154V45.2308C81.8816 46.2154 79.2693 46.7077 77.1431 46.7077Z" fill="url(#paint0_linear_1_128)"/>
<path d="M98.2817 46.6462C89.0477 46.6462 82.0007 39.3846 82.0007 30.5231C82.0007 21.7231 89.1084 14.4615 98.2817 14.4615C107.576 14.4615 114.623 21.7846 114.623 30.5231C114.623 39.3846 107.516 46.6462 98.2817 46.6462ZM98.2817 38.4615C102.716 38.4615 105.997 34.8923 105.997 30.5846C105.997 26.2769 102.716 22.7077 98.2817 22.7077C93.8469 22.7077 90.6272 26.2769 90.6272 30.5846C90.6272 34.8923 93.8469 38.4615 98.2817 38.4615ZM122.912 45.8462H114.286V28.3692C114.286 20.5538 118.66 14.5846 127.59 14.5846C129.534 14.5846 131.66 14.9538 133.179 15.6308V24.1231C131.721 23.2615 129.959 22.8308 128.38 22.8308C124.978 22.8308 122.912 25.0462 122.912 28.6769V45.8462ZM237.653 46.5231C234.676 46.5231 232.307 44.0615 232.307 41.1077C232.307 38.1538 234.676 35.6923 237.653 35.6923C240.569 35.6923 242.938 38.1538 242.938 41.1077C242.938 44.0615 240.569 46.5231 237.653 46.5231Z" fill="white"/>
<path d="M141.71 46.7077C135.453 46.7077 131.079 44.3692 128.588 39.8154L134.967 36.1846C136.242 38.6462 138.247 39.6923 141.285 39.6923C144.079 39.6923 145.841 38.5846 145.841 36.8C145.841 31.8769 129.317 36.1231 129.317 24.3692C129.317 18.8923 134.055 14.5846 141.467 14.5846C147.906 14.5846 151.794 17.6615 153.617 21.1692L147.238 24.8C146.266 22.5846 144.079 21.5385 141.649 21.5385C139.523 21.5385 137.943 22.5846 137.943 24.1846C137.943 29.1077 154.468 25.1692 154.468 36.6154C154.468 42.7692 148.575 46.7077 141.71 46.7077ZM162.97 59.8769H154.343V30.5231C154.343 21.3538 161.268 14.5231 170.624 14.5231C179.919 14.5231 186.905 21.7846 186.905 30.5231C186.905 40.0615 180.466 46.7077 171.11 46.7077C168.073 46.7077 165.217 45.6 162.97 43.8769V59.8769ZM170.624 38.4615C175.059 38.4615 178.279 34.8923 178.279 30.5846C178.279 26.2769 175.059 22.7692 170.624 22.7692C166.189 22.7692 162.97 26.2769 162.97 30.5846C162.97 34.8923 166.189 38.4615 170.624 38.4615ZM192.12 10.8308C189.204 10.8308 186.774 8.43077 186.774 5.41539C186.774 2.46154 189.204 -3.8147e-06 192.12 -3.8147e-06C195.036 -3.8147e-06 197.406 2.46154 197.406 5.41539C197.406 8.43077 195.036 10.8308 192.12 10.8308ZM187.807 15.3846H196.434V45.8462H187.807V15.3846ZM214.464 23.0154C209.604 23.0154 207.417 27.0154 207.417 31.6923V45.8462H198.791V30.6462C198.791 21.7846 203.954 14.5231 214.464 14.5231C224.974 14.5231 230.259 21.7231 230.259 30.6462V45.8462H221.633V31.6923C221.633 27.0154 219.385 23.0154 214.464 23.0154Z" fill="url(#paint1_linear_1_128)"/>
</g>
<defs>
<linearGradient id="paint0_linear_1_128" x1="210.241" y1="-5.68113" x2="159.322" y2="104.008" gradientUnits="userSpaceOnUse">
<stop stop-color="#FF7B31"/>
<stop offset="0.317708" stop-color="#FF0000"/>
<stop offset="1" stop-color="#FF7B31"/>
</linearGradient>
<linearGradient id="paint1_linear_1_128" x1="210.241" y1="-5.68117" x2="176.181" y2="101.525" gradientUnits="userSpaceOnUse">
<stop stop-color="#FF0000"/>
<stop offset="1" stop-color="#FF9A61"/>
</linearGradient>
<clipPath id="clip0_1_128">
<rect width="243" height="60" fill="white"/>
</clipPath>
</defs>
</svg>
