<svg width="191" height="107" viewBox="0 0 191 107" fill="none" xmlns="http://www.w3.org/2000/svg">
<g clip-path="url(#clip0_144_2)">
<path d="M72.0456 14.6084C61.8523 13.9175 50.3725 9.47574 42.6534 9.47574C34.9342 9.47574 31.3715 14.3123 31.3715 18.6554C31.3715 22.9984 34.7363 25.8609 38.6948 25.8609C42.6534 25.8609 46.1171 22.7023 46.1171 22.7023L51.1642 30.2039C51.1642 30.2039 46.513 35.2379 38.4969 35.2379C30.4808 35.2379 21.4751 28.7233 21.4751 18.7541C21.4751 8.7848 28.3036 0 42.5544 0C56.8052 0 70.1653 7.40292 81.2492 4.54046C84.515 1.7767 88.0777 0.0987056 92.63 0.0987056L94.9062 7.10681C92.9269 7.89645 90.3539 8.88351 86.3953 13.9175L50.4715 61.0988C46.7109 66.0341 44.2368 69.2914 41.1689 72.7461C47.4036 78.5697 54.529 85.5778 60.1699 90.0195C64.8212 93.5729 68.186 95.4484 71.7487 95.4484C75.3114 95.4484 80.3585 92.9807 85.1088 88.3416L92.2342 96.5341C84.9109 103.444 77.7855 106.207 72.0456 106.109C65.613 106.109 59.5762 102.654 53.9352 98.3108C47.7005 93.4742 40.971 86.5648 33.7466 80.0503C28.4026 84.492 23.0585 87.1571 16.2301 87.2558C5.64093 87.3545 0 79.9516 0 73.1409C0 66.3302 5.44301 58.0389 15.7352 58.0389C26.0275 58.0389 27.7098 61.2962 33.0539 65.5406C35.429 62.6781 37.9031 59.5195 40.0803 56.7557L72.0456 14.6084ZM25.7306 72.8448C22.0689 69.4888 18.7041 67.2185 15.3394 67.2185C11.9746 67.2185 9.69845 69.7849 9.69845 72.6474C9.69845 75.5098 12.0736 77.9775 15.9332 77.7801C18.6052 77.6813 21.9699 76.2008 25.7306 72.8448Z" fill="white"/>
<path d="M110.641 56.7557C102.823 70.3771 93.7187 81.5309 83.3275 81.5309C72.9363 81.5309 69.5715 75.5098 76.7959 57.7428L96.2917 9.47574H108.464L87.484 61.2962C83.1296 72.1538 85.0099 73.9305 86.9891 73.9305C91.6404 73.9305 99.1617 65.047 105.99 53.3998C107.673 53.4985 110.048 55.1765 110.641 56.7557Z" fill="white"/>
<path d="M162.004 56.7557C156.264 66.725 147.456 73.1409 137.461 71.1668C132.71 77.1878 126.377 81.5309 118.559 81.5309C110.74 81.5309 103.615 76.1021 103.615 65.9354C103.615 55.7687 113.61 27.7363 132.611 27.7363C151.612 27.7363 147.456 32.9677 147.456 43.1344C147.456 53.3011 145.378 57.4467 141.518 64.8496C146.664 65.2444 152.305 61.7897 157.352 53.3998C159.035 53.4985 161.41 55.1765 162.004 56.7557ZM127.465 66.725C126.278 65.4418 125.486 63.8626 125.486 61.9871C125.486 58.0389 128.851 54.8803 132.908 55.2752C134.986 50.0438 136.273 44.7137 136.273 41.4564C136.273 38.1991 134.492 35.8302 132.314 35.8302C123.903 35.8302 114.798 59.1247 114.798 67.7121C114.798 76.2995 116.381 73.437 118.954 73.437C121.527 73.437 124.793 70.6732 127.465 66.725Z" fill="white"/>
<path d="M191 56.7557C183.578 69.7849 173.78 81.5309 162.4 81.5309C151.019 81.5309 148.347 75.4111 155.472 57.7428L167.051 29.0195H158.243L160.816 22.801H169.624L174.968 9.47574H187.14L181.796 22.801H190.208L187.635 29.0195H179.223L166.16 61.2962C161.608 72.5487 163.884 73.9305 166.16 73.9305C171.603 73.9305 179.322 65.3431 186.349 53.3998C188.031 53.4985 190.406 55.1765 191 56.7557Z" fill="white"/>
</g>
<defs>
<clipPath id="clip0_144_2">
<rect width="191" height="106.111" fill="white"/>
</clipPath>
</defs>
</svg>
